<svg xmlns="http://www.w3.org/2000/svg" fill="none" viewBox="0 0 480 316">
  <path d="M99.08 137.381c-24.3.111-44.08.467-44.08.467s23.511-30.905 43.992-19.455C119.473 129.843 143 137.446 143 137.446s-19.619-.176-43.92-.065z" fill="#F2F2F2"/>
  <path d="M371 146.848a5 5 0 100-10 5 5 0 000 10z" fill="#FF6584"/>
  <path d="M333.99 221.163l37.987-43.621 1.172 1.021-37.987 43.621-1.172-1.021z" fill="#3F3D56"/>
  <path d="M373 185.848a8 8 0 100-16 8 8 0 000 16zm-23.714 19s15.36-19.572-4.286-33zM94.578 239.253c28.148 52.191 87.889 74.595 87.889 74.595s14.103-62.213-14.045-114.404c-28.148-52.191-87.889-74.596-87.889-74.596S66.43 187.062 94.578 239.253z" fill="#3F3D56"/>
  <path d="M113.621 222.308C164.431 252.965 184 313.857 184 313.857s-62.811 11.188-113.621-19.469C19.569 263.732 0 202.84 0 202.84s62.811-11.188 113.621 19.468z" fill="#111B47"/>
  <path d="M315.194 222.578C264.108 252.816 244 313.598 244 313.598s62.719 11.758 113.806-18.48C408.892 264.881 429 204.099 429 204.099s-62.719-11.758-113.806 18.479z" fill="#3F3D56"/>
  <path d="M333.739 241.069c-28.605 51.915-88.532 73.779-88.532 73.779s-13.55-62.305 15.054-114.22c28.605-51.915 88.532-73.78 88.532-73.78s13.55 62.306-15.054 114.221z" fill="#111B47"/>
  <path d="M229.881 98.888c-6.015-5.442-6.857-14.589-1.937-21.04-.314.295-.621.6-.915.926-5.779 6.394-5.282 16.263 1.109 22.044 6.39 5.781 16.255 5.284 22.033-1.11.294-.325.568-.661.829-1.003-5.921 5.545-15.102 5.625-21.119.183z" fill="#2F2E41"/>
  <path d="M215.5 109.848c17.949 0 32.5-14.55 32.5-32.5 0-17.949-14.551-32.5-32.5-32.5-17.949 0-32.5 14.551-32.5 32.5 0 17.95 14.551 32.5 32.5 32.5z" fill="#2F2E41"/>
  <path d="M206.238 118.879l.974-2.505-17.736 14.84-21.438 11.949s-10.915-41.629-11.694-42.4c-.78-.77-14.812-30.065-21.049-16.189-6.237 13.877 12.083 21.971 12.083 21.971s.585 50.687 19.295 50.301c18.711-.385 41.904-17.152 42.293-18.694.39-1.542-2.728-19.273-2.728-19.273zm5.262-8.031c10.77 0 19.5-8.73 19.5-19.5s-8.73-19.5-19.5-19.5-19.5 8.73-19.5 19.5 8.73 19.5 19.5 19.5z" fill="#FFB8B8"/>
  <path d="M214.879 105.598s5.064 6.569 3.506 7.341c-1.558.773-10.517 1.159-15.971 7.728-5.453 6.568 6.622 23.181 6.622 23.181L255 113.326l-18.697-6.182s-12.854-6.955-12.465-14.296l-8.959 12.75z" fill="#FFB8B8"/>
  <path d="M277 315.848h-51.63c-2.925-21.337-4.277-40.891-4.277-40.891s-.754 19.669-2.762 40.891H152c9.403-62.84 53.978-130.984 53.978-130.984s.388-9.283 1.551-10.831c1.164-1.543-6.588-1.93-10.078-13.529-2.128-7.081-.215-11.715 1.604-14.246a10.24 10.24 0 012.274-2.385s.776-8.116 0-9.277c-.099-.152.666-.685 2.081-1.496 1.179-.68 2.809-1.553 4.759-2.557 11.169-5.779 32.788-16.003 40.194-19.487 1.624-.768 2.568-1.208 2.568-1.208l13.176 4.639c10.461 3.478 10.461 25.521 10.461 25.521l-.592.9-15.812 23.9-9.172 13.869c2.327 1.543-2.322 11.213-2.322 11.213s6.625 9.497 12.012 23.994a108.9 108.9 0 016.19 25.024 85.356 85.356 0 01.398 16.715c-1.436 18.628 4.948 41.268 11.73 60.225z" fill="#2F2E41"/>
  <path d="M263.951 116.283a3.313 3.313 0 00-2.812-.22 3.364 3.364 0 00-1.978 2.032c-1.154 3.208-2.323 9.896-1.906 23.801a5971.358 5971.358 0 011.149 43.009v38.747s-16.853 37.196-7.66 37.196c9.192 0 15.703-29.447 15.703-29.447s8.427-44.559 5.745-52.308c0 0 7.56-53.535-8.241-62.81z" fill="#FFB8B8"/>
  <path d="M209.5 85.848c9.113 0 16.5-5.148 16.5-11.5 0-6.35-7.387-11.5-16.5-11.5s-16.5 5.15-16.5 11.5c0 6.352 7.387 11.5 16.5 11.5zm26.5-21c8.837 0 16-7.163 16-16 0-8.836-7.163-16-16-16s-16 7.164-16 16c0 8.837 7.163 16 16 16z" fill="#2F2E41"/>
  <path d="M247 60.233c-8.318-.001-15.248-6.254-15.94-14.385-.037.432-.06.867-.06 1.308 0 8.667 7.163 15.692 16 15.692s16-7.025 16-15.692c0-.44-.023-.876-.06-1.308-.692 8.13-7.622 14.384-15.94 14.385z" fill="#2F2E41"/>
  <path d="M230.389 87.867c.729-.174.997-1.665.599-3.33-.397-1.666-1.311-2.874-2.039-2.7-.729.174-.997 1.665-.599 3.33s1.311 2.874 2.039 2.7z" fill="#FFB8B8"/>
  <path d="M230 87.848a1 1 0 100-2 1 1 0 000 2z" fill="#F2F2F2"/>
  <path fill-rule="evenodd" clip-rule="evenodd" d="M40 147.348a6.5 6.5 0 006.5 6.5 6.507 6.507 0 006.5-6.5 6.5 6.5 0 00-13 0zm1.083 0a5.417 5.417 0 1110.833.001 5.417 5.417 0 01-10.833-.001zM304 107.848h14v-14h-14v14zm12.923-1.077h-11.846V94.925h11.846v11.846z" fill="#3F3D56"/>
  <path d="M436.08 180.381c-24.3.111-44.08.467-44.08.467s23.511-30.905 43.992-19.455C456.473 172.843 480 180.446 480 180.446s-19.619-.176-43.92-.065zm-75-105c-24.3.111-44.08.467-44.08.467s23.511-30.905 43.992-19.455C381.473 67.843 405 75.446 405 75.446s-19.619-.176-43.92-.065zm-229.722 13.6L75.236 60.01c-3.832-1.979-5.341-6.702-3.37-10.55l13.22-25.812a3.094 3.094 0 011.885-1.56l44.234-12.95c3.672-1.074 7.541.923 8.806 4.547l14.534 41.62a8.14 8.14 0 01-.439 6.394l-12.241 23.898a7.81 7.81 0 01-4.555 3.877 7.775 7.775 0 01-5.952-.493z" fill="#F2F2F2"/>
  <path opacity=".1" d="M133.347 79.424l-56.542-24.24c-1.821-.941-.113.505.824-1.325l7.107-29.01L154 60.615l-17.511 21.743c-.936 1.83-1.32-1.994-3.142-2.935z" fill="#000"/>
  <path d="M86.156 62.49a8.186 8.186 0 01-3.536-11.024l19.04-37.027a8.185 8.185 0 0111.023-3.537l37.027 19.04a8.186 8.186 0 013.536 11.023l-19.039 37.027a8.187 8.187 0 01-11.024 3.537l-37.027-19.04z" fill="#111B47"/>
  <path opacity=".1" d="M145 56.434l-14.542 28.414L79 58.262l14.542-28.414 19.335 25.788 32.123.798z" fill="#000"/>
  <path d="M112.252 57.505L87.288 24.451a1.517 1.517 0 00-2.559.218L70.524 52.224a4.71 4.71 0 00-.298 3.601 4.723 4.723 0 002.342 2.756l61.892 31.745a4.744 4.744 0 003.61.297 4.73 4.73 0 002.763-2.336l13.962-27.084a1.84 1.84 0 00-.054-1.785 1.85 1.85 0 00-1.545-.903l-40.944-1.01zm-4.84-43.325l14.427 7.419-1.049 2.04-14.427-7.418 1.049-2.04zm-4.987 6.833l42.843 22.03-.599 1.166-42.843-22.03.599-1.166zm-2.023 3.935l42.843 22.03-.6 1.166-42.843-22.03.6-1.166z" fill="#F2F2F2"/>
  <path d="M98.379 28.882l42.843 22.03-.6 1.166-42.843-22.03.6-1.166z" fill="#F2F2F2"/>
  <path d="M113.073 12.13c1.7-3.306.403-7.361-2.897-9.058-3.299-1.696-7.352-.392-9.052 2.914-1.7 3.305-.403 7.36 2.897 9.058 3.299 1.696 7.352.392 9.052-2.914z" fill="#fff"/>
  <path fill-rule="evenodd" clip-rule="evenodd" d="M99.887 5.19a8.005 8.005 0 0110.777-3.455 8.02 8.02 0 013.457 10.771 8.004 8.004 0 01-10.776 3.455 7.996 7.996 0 01-3.458-10.77zm1.933 1.18l1.772 5.52 9.949-3.184-.497-1.549-8.398 2.693-1.277-3.977-1.549.497z" fill="#57B894"/>
</svg>
